# xmcd
#
# Track frame offsets:
#  150
#  22550
#  34934
#  39724
#  70282
#  103195
#  124953
#  145135
#  170534
#  204258
#  228014
#  249605
#  267660
#  285367
#  306489
#  321365
#
# Disc length: 4521 seconds
#
# Revision: 0
# Processed by: cddbd v1.5.1PL2 Copyright (c) Steve Scherf et al.
# Submitted via: Collectorz.com_Music_Collector 6.11
#
DISCID=e811a710
DTITLE=Guy Clark, Joe Ely, John Hiatt and Lye Lovett - Wharton Center, Great Cobb Hall, Mi - 18 Nov 2005 [CD2)
DYEAR=2005
DGENRE=Alt Country
TTITLE0=John Hiatt - Icy Blue Heart
TTITLE1=Talking About Film Music
TTITLE2=Lyle Lovett - Introduces Jeff Daniels
TTITLE3=jeff daniels - Have A Good Life And Die
TTITLE4=Lyle Lovett - My Baby Don't Tolerate
TTITLE5=Guy Clark - Dublin Blues
TTITLE6=Joe Ely - Slow You Down
TTITLE7=John Hiatt - Memphis In The Meantime
TTITLE8=Lyle Lovett - Step Inside This House
TTITLE9=Blowin' Down This Old Dusty Road
TTITLE10=jeff daniels - If William Shatner Can I Can Too
TTITLE11=Guy Clark - She Ain't Going Nowhere
TTITLE12=Joe Ely - Wind's Gonna Blow You Away
TTITLE13=John Hiatt - Through Your Hands
TTITLE14=Lyle Lovett - If I Had A Boat
TTITLE15=This Land Is Your Land
EXTD=
EXTT0=
EXTT1=
EXTT2=
EXTT3=
EXTT4=
EXTT5=
EXTT6=
EXTT7=
EXTT8=
EXTT9=
EXTT10=
EXTT11=
EXTT12=
EXTT13=
EXTT14=
EXTT15=
PLAYORDER=
